# xmcd
#
# Track frame offsets: 
#        150
#        17721
#        40328
#        60067
#        79952
#
# Disc length: 1431 seconds
#
# Revision: 0
# Processed by: cddbd v1.5.2PL0 Copyright (c) Steve Scherf et al.
# Submitted via: ExactAudioCopy v1.3
#
DISCID=31059505
DTITLE=Lulu Campers Blues Band - Satanée Lune
DYEAR=1999
DGENRE=Blues
TTITLE0=Baby, what you want me to do?
TTITLE1=Satanée lune
TTITLE2=Le blues au bout d'mon lit
TTITLE3=Le long chemin
TTITLE4=I'm a woman
EXTD=
EXTT0=
EXTT1=
EXTT2=
EXTT3=
EXTT4=
PLAYORDER=
